/* XPM */
static char *c044acd93a31410aff5fc63a3eeecf34iurOTvt060K9BLco[] = {
/* columns rows colors chars-per-pixel */
"65 65 188 2 ",
"   c None",
".  c #1B7E7D",
"X  c #276C77",
"o  c #276E79",
"O  c #286E7A",
"+  c #27767F",
"@  c #29727D",
"#  c #22797F",
"$  c #16857E",
"%  c #19817E",
"&  c #14897E",
"*  c #1C7F80",
"=  c #277780",
"-  c #2A7781",
";  c #257B83",
":  c #2A7C85",
">  c #178580",
",  c #1B8383",
"<  c #128C82",
"1  c #1A8887",
"2  c #1E8788",
"3  c #1C8989",
"4  c #0F9487",
"5  c #0E958B",
"6  c #0C988D",
"7  c #109185",
"8  c #11938B",
"9  c #0E9A93",
"0  c #119691",
"q  c #1E9292",
"w  c #129995",
"e  c #119D99",
"r  c #248187",
"t  c #288087",
"y  c #24858A",
"u  c #2B848B",
"i  c #238B8D",
"p  c #2B8B8F",
"a  c #2C8C91",
"s  c #239493",
"d  c #2D9396",
"f  c #2F979B",
"g  c #259C9A",
"h  c #2D9A9B",
"j  c #14A19D",
"k  c #18A39F",
"l  c #25A29E",
"z  c #2BA29F",
"x  c #2CBF9F",
"c  c #0AA6A0",
"v  c #0CAAA5",
"b  c #01AFAA",
"n  c #0FAEA9",
"m  c #17A6A1",
"M  c #19A6A1",
"N  c #14AAA5",
"B  c #1BABA5",
"V  c #14AFAA",
"C  c #1BAEA8",
"Z  c #02B1AE",
"A  c #0DB2AE",
"S  c #13B2AD",
"D  c #1CB3AC",
"F  c #1AAFB4",
"G  c #05B4B2",
"H  c #0BB6B3",
"J  c #07B8B7",
"K  c #0BB9B7",
"L  c #0CBCBB",
"P  c #13B7B2",
"I  c #1BB4B4",
"U  c #15BAB4",
"Y  c #1EBBB3",
"T  c #11BFBD",
"R  c #1BBBB9",
"E  c #27A5A0",
"W  c #2CA5A2",
"Q  c #24ACA5",
"!  c #2BABA5",
"~  c #2FAFAA",
"^  c #31A1A2",
"/  c #31AAA9",
"(  c #21B5AC",
")  c #2CB4AB",
"_  c #23BCAD",
"`  c #2CBAAF",
"'  c #32B2AE",
"]  c #22BDB1",
"[  c #33B7B3",
"{  c #32BAB4",
"}  c #10C0BE",
"|  c #1CC4BC",
" . c #2EC4A2",
".. c #2ECCA6",
"X. c #25C3AE",
"o. c #27CBAF",
"O. c #2BCFAB",
"+. c #31C6A5",
"@. c #30C8A4",
"#. c #32CCAA",
"$. c #2DD4AC",
"%. c #2ED8AD",
"&. c #31D3AB",
"*. c #23C4B3",
"=. c #26CAB4",
"-. c #2ACCB6",
";. c #21C5BA",
":. c #24CBBD",
">. c #2BCEBA",
",. c #30C0B7",
"<. c #33C4BC",
"1. c #30C9BE",
"2. c #2AD4B4",
"3. c #2CD9B4",
"4. c #27D0BF",
"5. c #2BD2BA",
"6. c #2EDDBE",
"7. c #34D5B2",
"8. c #34DAB5",
"9. c #34DDBC",
"0. c #31E0BD",
"q. c #14C4C2",
"w. c #17C8C6",
"e. c #1CCAC5",
"r. c #1DCDCA",
"t. c #1FD1C7",
"y. c #26CFC1",
"u. c #25CFC2",
"i. c #22CDC1",
"p. c #30CDC2",
"a. c #31CFC4",
"s. c #33CCC3",
"d. c #27D1C3",
"f. c #27D0C1",
"g. c #23D1C7",
"h. c #27D2C5",
"j. c #25D2C5",
"k. c #27D4C7",
"l. c #25D1C4",
"z. c #29D1C1",
"x. c #28D3C5",
"c. c #2AD3C5",
"v. c #2AD4C6",
"b. c #29D5C3",
"n. c #2DDBC3",
"m. c #22D3C8",
"M. c #22D5CA",
"N. c #23D6CA",
"B. c #25D5C9",
"V. c #27D7CB",
"C. c #27D5C9",
"Z. c #23D3CC",
"A. c #2AD7CA",
"S. c #29D5C8",
"D. c #28D7CE",
"F. c #25D8CB",
"G. c #26D9CD",
"H. c #26DACE",
"J. c #28D8CB",
"K. c #2ADBCE",
"L. c #2FDACD",
"P. c #2DDCCF",
"I. c #2CDBCE",
"U. c #33D1C6",
"Y. c #37DFC0",
"T. c #30DFC3",
"R. c #34D3C9",
"E. c #33D7CB",
"W. c #33D8CD",
"Q. c #31DACD",
"!. c #34D9CE",
"~. c #31DCCF",
"^. c #31DFCD",
"/. c #25D5D0",
"(. c #2ADDD0",
"). c #2ADED1",
"_. c #2CDDD0",
"`. c #2EDDD0",
"'. c #2EDFD2",
"]. c #2BDBD1",
"[. c #33DDD1",
"{. c #31DED1",
"}. c #31DFD2",
"|. c #34E1C3",
" X c #34E1CB",
".X c #2EE0D3",
"XX c #32E0D3",
"oX c #34E2D1",
/* pixels */
"                                                                                                                                  ",
"                                                                                                                                  ",
"                                                                                                                                  ",
"                                                                                                                                  ",
"                                                                                                                                  ",
"                                                                                                                                  ",
"                                                                                                                                  ",
"                                                                I I                                                               ",
"                                                              I I I I                                                             ",
"                                                            R Y I I I I (                                                         ",
"                                                          R R R R Y Y ( ( (                                                       ",
"                                                        | | R R R ] R ] _ _ _                                                     ",
"                                                        e.| | ;.      *._ _ _                                                     ",
"                                                        | | ;.;.      *.*.*.X.                                                    ",
"                                        m.r.            i.:.;.:.      =.*.=.X.             ._                                     ",
"                                    G.m.m.m.m.          :.:.:.:.      =.o.o.o.          .. . . .+.                                ",
"                                  ].G.F.V.V.g.g.    u.y.:.:.:.        -.=.O.=.O.$.  O.O.........@.+.                              ",
"                                ).).K.K.F.A.V.k.x.d.g.z.:.y.:.          =.2.2.2.$.$.$.%.&.&.&.&.#.#.#.                            ",
"                              XX'.].K.K.  A.v.v.x.d.x.y.z.4.            2.2.2.2.2.$.%.%.%.%.&.&.&.#.#.#.                          ",
"                              XX'.'.P.        v.x.x.z.5.5.z.            2.2.2.2.3.3.%.3.        7.&.7.7.                          ",
"                            XX[.{.~.L.                z.>.z.5.          5.3.3.3.                8.8.8.7.                          ",
"                            [.!.~.Q.                  z.z.>.5.        5.3.3.3.6.                  8.8.8.9.                        ",
"                            !.!.Q.E.                  p.>.>.>.>.    5.3.5.3.3.                    9.9.9.9.                        ",
"                            R.R.U.U.    a.p.            >.>.>.>.5.5.5.5.3.5.              0.0.    9.0.|.Y.                        ",
"                            R.s.s.s.    p.1.1.            >.>.>.>.5.5.5.7.              0.0.0.    |.Y.Y.|.                        ",
"                            s.<.s.<.    <.<.<.                -.-.>.>.5.              6.6.0.|.    |. XY. X                        ",
"                            <.{ { <.    { ,.,.                  -.-.-.                6.n.T.T.     X X X X                        ",
"                            [ [ [ [     ` { {                     -.                  6.6.|.T.     X X X X                        ",
"                            / [ [ '     ' ' )       ` `                       5.5.    6.n.T.n.     X X XoX                        ",
"                            / / / /     ~ ' '       ) ) `                   -.5.5.    b.n.n.L.     X XoXXX                        ",
"                            ^ ^ ^ ^     W ^ !       ) ) `                   >.4.4.    6.b.n.n.    P.oXoX[.                        ",
"                            f f f f     ^ z ^       ! ! )                   =.-.>.    4.b.v.v.    L.).'.[.                        ",
"                            d d d d     h g h       E ! !                   *.:.=.    f.f.k.v.    K.K.K.].                        ",
"                            a a a a     d d f       z E !                   *.*.:.    :.f.f.g.    K.D.D.].                        ",
"                            u u u p     a d d       z z E Q               ] *.*.;.    :.i.i.l.    Z.Z.Z./.                        ",
"                            : : : :     u p d       g g z l             ] ] ] ] ;.    :.:.e.e.    g.Z.Z.Z.                        ",
"                            - - : :     u u p         g g l l         ( ( ( ] Y         | | e.    r.r.r.Z.                        ",
"                            - @ - -     t u           d g g l l       C Q D I           | | |     e.r.e.r.                        ",
"                            @ @ @ @     :             s g g g l       Q C D D D           | |     q.w.w.w.                        ",
"                            @ @ @ @         t y y p i s s q g           C C D D D Y U U           q.q.q.q.                        ",
"                            @ @ - @       : : r y y i s s s               B C D S D P P U U       T L q.q.                        ",
"                            @ @ @ @     - - ; r r y y 3 i q q           M M N N V S S S P P       L L L L                         ",
"                            O @ O @     + - ; ; r y y i 3 s q           k M N N N V S A A H H     K K L L                         ",
"                            O O @ @     +   ; ; ; r         q           k       N v V n A   A     H J J J                         ",
"                            X O O @         ; ; ;                                 v v v           G G G G                         ",
"                            X O O O           # ;       3 3               e j       v v           Z b G G                         ",
"                            X O X             #         2 2             w e e       c               b b G                         ",
"                            X X                       , , 2 3           w w e                         b b                         ",
"                                                      , , , 1           0 w 9 9                                                   ",
"                                                      * , , 1           0 0 9 9                                                   ",
"                                                      * , ,             8 0 9 9                                                   ",
"                                                      . % ,             8 5 5 9                                                   ",
"                                                    . . % ,               5 5 6                                                   ",
"                                                    . . . % >           7 5 5 6 9                                                 ",
"                                                      . % % $ >       7 7 4 5 5                                                   ",
"                                                        . % $ > < < < < 7 4 4                                                     ",
"                                                          % $ $ > < < 7 7 7                                                       ",
"                                                            $ $ $ < & <                                                           ",
"                                                              $ $ & &                                                             ",
"                                                                  &                                                               ",
"                                                                                                                                  ",
"                                                                                                                                  ",
"                                                                                                                                  ",
"                                                                                                                                  ",
"                                                                                                                                  "
};
