/* XPM */
static char *f39e8f255ef1410dbda9aad00fae2aferm763WdhAFzuJEmd[] = {
/* columns rows colors chars-per-pixel */
"16 17 45 1 ",
"  c None",
". c #1B7E7D",
"X c #286E7A",
"o c #2A727E",
"O c #16857E",
"+ c #247A82",
"@ c #2B7B85",
"# c #118E83",
"$ c #0C998E",
"% c #278187",
"& c #248F91",
"* c #2A8F92",
"= c #289C9B",
"- c #2F9A9D",
"; c #0DAEAA",
": c #19B3AC",
"> c #06B6B5",
", c #15BAB4",
"< c #1FB8B0",
"1 c #1CBBB9",
"2 c #2DA5A2",
"3 c #2BAEA6",
"4 c #2FBBB3",
"5 c #34BBB6",
"6 c #2ED9AE",
"7 c #32D4AD",
"8 c #21C0B4",
"9 c #24C8B4",
"0 c #22C8BB",
"q c #27CDB9",
"w c #20C8BD",
"e c #2BD6B2",
"r c #2BD0BA",
"t c #2BD5B8",
"y c #2EDCBF",
"u c #37DDBE",
"i c #13C4C3",
"p c #28D1C1",
"a c #29D4C1",
"s c #2AD4C7",
"d c #22D2CE",
"f c #2CDBCE",
"g c #34D5CB",
"h c #2FDED2",
"j c #36E2CC",
/* pixels */
"                ",
"                ",
"       1<       ",
"       09       ",
"    fsp  e67    ",
"   g   rt   u   ",
"   5 4    y j   ",
"   - 23  qa h   ",
"   @ *=  8w d   ",
"   o %&  :, i   ",
"   X +    ; >   ",
"                ",
"      .  $      ",
"       O#       ",
"                ",
"                ",
"                "
};
