/* XPM */
static char *_c13565667ea4d5dc2542f41fa3191189oUmTH0JECpT5783[] = {
/* columns rows colors chars-per-pixel */
"32 33 209 2 ",
"   c None",
".  c #1A7E7D",
"X  c #1B7E7E",
"o  c #276D78",
"O  c #276F7A",
"+  c #286F7B",
"@  c #28707B",
"#  c #29707C",
"$  c #29717D",
"%  c #29727E",
"&  c #2A727E",
"*  c #2A737F",
"=  c #15857C",
"-  c #16857E",
";  c #18817C",
":  c #18827F",
">  c #14897D",
",  c #14897E",
"<  c #1C7F81",
"1  c #2A7580",
"2  c #237980",
"3  c #277981",
"4  c #247B82",
"5  c #257E85",
"6  c #2B7C85",
"7  c #2B7F88",
"8  c #198381",
"9  c #1E8183",
"0  c #1A8484",
"q  c #1B8787",
"w  c #148A81",
"e  c #118E81",
"r  c #118E84",
"t  c #118F87",
"y  c #1D898A",
"u  c #0F9286",
"i  c #0F9489",
"p  c #0F958C",
"a  c #0C988B",
"s  c #0C9990",
"d  c #0D9B94",
"f  c #109791",
"g  c #109A95",
"h  c #129E9A",
"j  c #228086",
"k  c #278288",
"l  c #248489",
"z  c #2A8289",
"x  c #228B8D",
"c  c #26898C",
"v  c #2B8A8E",
"b  c #2D8A90",
"n  c #2D8C92",
"m  c #209292",
"M  c #249091",
"N  c #229796",
"B  c #2A9093",
"V  c #2D9597",
"C  c #259D9A",
"Z  c #279D9B",
"A  c #2B9A9A",
"S  c #2F9B9D",
"D  c #309A9D",
"F  c #23A49E",
"G  c #26A49F",
"H  c #0AA9A5",
"J  c #0FABA6",
"K  c #0EAEAA",
"L  c #16ADA7",
"P  c #18A8A3",
"I  c #1BAEA7",
"U  c #03B0AE",
"Y  c #14B1AB",
"T  c #12B4AF",
"R  c #1AB3AC",
"E  c #1EB4AC",
"W  c #19AEB4",
"Q  c #03B2B0",
"!  c #07B7B6",
"~  c #0FB7B3",
"^  c #08B6B4",
"/  c #0EBCBA",
"(  c #0DBEBC",
")  c #1EB2B0",
"_  c #1CB5B4",
"`  c #16BAB4",
"'  c #18B8B1",
"]  c #1EBCB5",
"[  c #1AB7B8",
"{  c #1DBEB9",
"}  c #2EA1A0",
"|  c #29A6A1",
" . c #2DA5A2",
".. c #2BAEA6",
"X. c #20AFA8",
"o. c #32A9A9",
"O. c #31AAA9",
"+. c #30AEA9",
"@. c #2EB0AA",
"#. c #2CB7AD",
"$. c #22BAAD",
"%. c #22BAAF",
"&. c #20BAB1",
"*. c #2FBBB2",
"=. c #30BAB2",
"-. c #33B9B4",
";. c #14C3BF",
":. c #1BC0BB",
">. c #1BC5BD",
",. c #1FC6BD",
"<. c #2EC1A1",
"1. c #2DC5A3",
"2. c #24C1AE",
"3. c #32CAA7",
"4. c #30CEA8",
"5. c #2FD2A9",
"6. c #2DD3AA",
"7. c #2BD2AC",
"8. c #2EDAAF",
"9. c #34D1AF",
"0. c #33D4AF",
"q. c #32D6AE",
"w. c #22C2B2",
"e. c #25C1B2",
"r. c #21C0B4",
"t. c #24C6B7",
"y. c #26CAB1",
"u. c #25C9B4",
"i. c #28C8B5",
"p. c #2ACAB6",
"a. c #2BCBB7",
"s. c #2BCEB7",
"d. c #20C5BA",
"f. c #23CABB",
"g. c #27CDB8",
"h. c #20C8BD",
"j. c #22CBBE",
"k. c #25CDBF",
"l. c #26CFBE",
"z. c #2BCFB9",
"x. c #2BCEBB",
"c. c #30C5BA",
"v. c #31C5BB",
"b. c #33C7BF",
"n. c #2AD2B0",
"m. c #29D0B3",
"M. c #2BD7B3",
"N. c #2AD5B5",
"B. c #2DD9B0",
"V. c #2BD8B6",
"C. c #2CD9B5",
"Z. c #2AD1B9",
"A. c #2BD1B9",
"S. c #2BD2B8",
"D. c #2CD4B8",
"F. c #2CD7B8",
"G. c #2AD0BD",
"H. c #28D0BE",
"J. c #2BD0BF",
"K. c #2FDEBD",
"L. c #2EDCBF",
"P. c #36D9B7",
"I. c #34DAB6",
"U. c #35DFBE",
"Y. c #36DEBF",
"T. c #31E0BA",
"R. c #31E0BF",
"E. c #14C5C3",
"W. c #1BCAC5",
"Q. c #1BCBC8",
"!. c #20CBC1",
"~. c #26CFC1",
"^. c #34C7C0",
"/. c #30CEC3",
"(. c #25D1C3",
"). c #26D1C4",
"_. c #26D4C7",
"`. c #28D1C1",
"'. c #28D3C0",
"]. c #29D2C3",
"[. c #2AD6C5",
"{. c #2AD4C6",
"}. c #2BD8C0",
"|. c #2DDBC4",
" X c #21D0C9",
".X c #22D2C8",
"XX c #22D5CA",
"oX c #27D6CA",
"OX c #21D2CC",
"+X c #27D6CC",
"@X c #28DACD",
"#X c #2CDBCE",
"$X c #2DDCCD",
"%X c #33D2C7",
"&X c #30DEC2",
"*X c #34D4CA",
"=X c #31DBCE",
"-X c #30DFCC",
";X c #28D8D0",
":X c #29DDD1",
">X c #2EDDD1",
",X c #2DDED1",
"<X c #33DDD1",
"1X c #34E2C4",
"2X c #36E1C6",
"3X c #33E1C9",
"4X c #35E2CC",
"5X c #2FE1D4",
"6X c #32E0D0",
/* pixels */
"                                                                ",
"                                                                ",
"                                                                ",
"                                W                               ",
"                              [ _ )                             ",
"                            { { ] &.%.                          ",
"                            h.d.  w.2.                          ",
"                  XX.X      !.f.  u.y.      1.<.                ",
"                :X@XoX_.).~.l.      n.n.7.6.5.9.3.              ",
"              5X,X#X  {.].`.G.      N.M.8.8.  q.0.9.            ",
"              <X=X        G.G.      V.C.        I.P.            ",
"              *X%X  /.      x.A.x.F.F.      T.  R.Y.            ",
"              ^.b.  v.v.      a.a.A.      R.R.  1X2X            ",
"              -.-.  =.*.        a.        |.&X  3X4X            ",
"              o.o.  +.@.  #.          A.  }.|.  -X6X            ",
"              D S   }  .  ..        u.g.  H.{.  $X<X            ",
"              b n   V A   |         e.t.  ~.(.  +X;X            ",
"              6 z   v B   Z G       &.r.  f.W.  .XOX            ",
"              & *   z       Z |   X.$.      >.  W.Q.            ",
"              & &     k c M N       I R ' `     ;.E.            ",
"              & &   3 5 l x m       P L Y T ~   / (             ",
"              + O     3 j               J K     ^ ^             ",
"              O @     2     y       h     H     U Q             ",
"                          9 0       g                           ",
"                          9 0       f d                         ",
"                          X 8       p s                         ",
"                          X :     t i a                         ",
"                            ; = w r u                           ",
"                              = , e                             ",
"                                ,                               ",
"                                                                ",
"                                                                ",
"                                                                "
};
